<?xml version="1.0" encoding="UTF-8"?>
<!DOCTYPE svg PUBLIC "-//W3C//DTD SVG 1.1//EN" "http://www.w3.org/Graphics/SVG/1.1/DTD/svg11.dtd">
<!-- Creator: CorelDRAW X7 -->
<svg xmlns="http://www.w3.org/2000/svg" xml:space="preserve" width="1.70017in" height="1.69681in" version="1.1" style="shape-rendering:geometricPrecision; text-rendering:geometricPrecision; image-rendering:optimizeQuality; fill-rule:evenodd; clip-rule:evenodd"
viewBox="0 0 1430 1427"
 xmlns:xlink="http://www.w3.org/1999/xlink">
 <defs>
  <style type="text/css">
   <![CDATA[
    .fil0 {fill:#FCB43A;fill-rule:nonzero}
   ]]>
  </style>
 </defs>
 <g id="Layer_x0020_1">
  <metadata id="CorelCorpID_0Corel-Layer"/>
  <g id="_1723428200288">
   <path class="fil0" d="M715 148l-106 62 0 0 -106 60 0 123 0 123 106 61 0 0 106 61 106 -61 106 -61 0 -123 0 -123 -106 -60 -106 -62zm-170 -50l-1 0 139 -79 32 -19 32 19 138 79 138 80 32 19 0 37 0 159 0 160 0 36 -32 19 -138 80 -138 80 -32 18 -32 -18 -139 -80 1 0 -138 -80 -33 -19 0 -36 0 -160 0 -159 0 -37 33 -19 138 -80z"/>
   <path class="fil0" d="M341 789l-106 61 0 0 -106 61 0 123 0 122 106 61 0 0 106 61 106 -61 105 -61 0 -122 0 -123 -105 -61 -106 -61zm-171 -50l0 0 138 -80 33 -18 32 18 138 80 138 80 32 18 0 37 0 160 0 159 0 37 -32 19 -138 79 -138 80 -32 19 -33 -19 -138 -80 0 0 -138 -79 -32 -19 0 -37 0 -159 0 -160 0 -37 32 -18 138 -80z"/>
   <path class="fil0" d="M1089 789l-106 61 0 0 -106 61 0 123 0 122 106 61 0 0 106 61 106 -61 106 -61 0 -122 0 -123 -106 -61 -106 -61zm-170 -50l0 0 138 -80 32 -18 32 18 138 80 138 80 33 18 0 37 0 160 0 159 0 37 -33 19 -138 79 -138 80 -32 19 -32 -19 -138 -80 0 0 -138 -79 -33 -19 0 -37 0 -159 0 -160 0 -37 33 -18 138 -80z"/>
  </g>
 </g>
</svg>
